<svg width="552" height="118" viewBox="0 0 552 118" fill="none" xmlns="http://www.w3.org/2000/svg">
<rect width="552" height="118" fill="white"/>
<rect x="17" y="13" width="191" height="92" fill="#0E345A"/>
<rect x="210" y="15" width="323" height="88" fill="white" stroke="#0E345A" stroke-width="4"/>
<path d="M49.4432 79V44.0909H62.8068C65.3295 44.0909 67.4261 44.4886 69.0966 45.2841C70.7784 46.0682 72.0341 47.142 72.8636 48.5057C73.7045 49.8693 74.125 51.4148 74.125 53.142C74.125 54.5625 73.8523 55.7784 73.3068 56.7898C72.7614 57.7898 72.0284 58.6023 71.108 59.2273C70.1875 59.8523 69.1591 60.3011 68.0227 60.5739V60.9148C69.2614 60.983 70.4489 61.3636 71.5852 62.0568C72.733 62.7386 73.6705 63.7045 74.3977 64.9545C75.125 66.2045 75.4886 67.7159 75.4886 69.4886C75.4886 71.2955 75.0511 72.9205 74.1761 74.3636C73.3011 75.7955 71.983 76.9261 70.2216 77.7557C68.4602 78.5852 66.2443 79 63.5739 79H49.4432ZM55.767 73.7159H62.5682C64.8636 73.7159 66.517 73.2784 67.5284 72.4034C68.5511 71.517 69.0625 70.3807 69.0625 68.9943C69.0625 67.9602 68.8068 67.0284 68.2955 66.1989C67.7841 65.358 67.0568 64.6989 66.1136 64.2216C65.1705 63.733 64.0455 63.4886 62.7386 63.4886H55.767V73.7159ZM55.767 58.9375H62.0227C63.1136 58.9375 64.0966 58.7386 64.9716 58.3409C65.8466 57.9318 66.5341 57.358 67.0341 56.6193C67.5455 55.8693 67.8011 54.983 67.8011 53.9602C67.8011 52.608 67.3239 51.4943 66.3693 50.6193C65.4261 49.7443 64.0227 49.3068 62.1591 49.3068H55.767V58.9375ZM87.3139 44.0909V79H80.9901V44.0909H87.3139ZM122.849 44.0909V79H117.224L100.776 55.2216H100.486V79H94.1619V44.0909H99.821L116.253 67.8864H116.56V44.0909H122.849ZM129.74 79V44.0909H136.064V60.1307H136.49L150.109 44.0909H157.831L144.331 59.7557L157.95 79H150.348L139.933 64.0341L136.064 68.6023V79H129.74ZM165.753 79.375C164.719 79.375 163.832 79.0114 163.094 78.2841C162.355 77.5568 161.991 76.6705 162.003 75.625C161.991 74.6023 162.355 73.7273 163.094 73C163.832 72.2727 164.719 71.9091 165.753 71.9091C166.753 71.9091 167.622 72.2727 168.361 73C169.111 73.7273 169.491 74.6023 169.503 75.625C169.491 76.3182 169.31 76.9489 168.957 77.517C168.616 78.0852 168.162 78.5398 167.594 78.8807C167.037 79.2102 166.423 79.375 165.753 79.375Z" fill="white"/>
<path d="M235.295 72V48.7273H244.023C245.811 48.7273 247.311 49.0606 248.523 49.7273C249.742 50.3939 250.663 51.3106 251.284 52.4773C251.913 53.6364 252.227 54.9545 252.227 56.4318C252.227 57.9242 251.913 59.25 251.284 60.4091C250.655 61.5682 249.727 62.4811 248.5 63.1477C247.273 63.8068 245.761 64.1364 243.966 64.1364H238.182V60.6705H243.398C244.443 60.6705 245.299 60.4886 245.966 60.125C246.633 59.7614 247.125 59.2614 247.443 58.625C247.769 57.9886 247.932 57.2576 247.932 56.4318C247.932 55.6061 247.769 54.8788 247.443 54.25C247.125 53.6212 246.629 53.1326 245.955 52.7841C245.288 52.428 244.428 52.25 243.375 52.25H239.511V72H235.295ZM278.497 48.7273H282.713V63.9318C282.713 65.5985 282.319 67.0644 281.531 68.3295C280.751 69.5947 279.652 70.5833 278.236 71.2955C276.819 72 275.164 72.3523 273.27 72.3523C271.368 72.3523 269.709 72 268.293 71.2955C266.876 70.5833 265.777 69.5947 264.997 68.3295C264.217 67.0644 263.827 65.5985 263.827 63.9318V48.7273H268.043V63.5795C268.043 64.5492 268.255 65.4129 268.679 66.1705C269.111 66.928 269.717 67.5227 270.497 67.9545C271.277 68.3788 272.202 68.5909 273.27 68.5909C274.338 68.5909 275.262 68.3788 276.043 67.9545C276.83 67.5227 277.437 66.928 277.861 66.1705C278.285 65.4129 278.497 64.5492 278.497 63.5795V48.7273ZM295.233 72V48.7273H304.142C305.824 48.7273 307.222 48.9924 308.335 49.5227C309.456 50.0455 310.294 50.7614 310.847 51.6705C311.407 52.5795 311.688 53.6098 311.688 54.7614C311.688 55.7083 311.506 56.5189 311.142 57.1932C310.778 57.8598 310.29 58.4015 309.676 58.8182C309.062 59.2348 308.377 59.5341 307.619 59.7159V59.9432C308.445 59.9886 309.237 60.2424 309.994 60.7045C310.759 61.1591 311.384 61.803 311.869 62.6364C312.354 63.4697 312.597 64.4773 312.597 65.6591C312.597 66.8636 312.305 67.947 311.722 68.9091C311.138 69.8636 310.259 70.6174 309.085 71.1705C307.911 71.7235 306.434 72 304.653 72H295.233ZM299.449 68.4773H303.983C305.513 68.4773 306.616 68.1856 307.29 67.6023C307.972 67.0114 308.312 66.2538 308.312 65.3295C308.312 64.6402 308.142 64.0189 307.801 63.4659C307.46 62.9053 306.975 62.4659 306.347 62.1477C305.718 61.822 304.968 61.6591 304.097 61.6591H299.449V68.4773ZM299.449 58.625H303.619C304.347 58.625 305.002 58.4924 305.585 58.2273C306.169 57.9545 306.627 57.572 306.96 57.0795C307.301 56.5795 307.472 55.9886 307.472 55.3068C307.472 54.4053 307.153 53.6629 306.517 53.0795C305.888 52.4962 304.953 52.2045 303.71 52.2045H299.449V58.625ZM324.202 72V48.7273H328.418V68.4659H338.668V72H324.202ZM354.48 48.7273V72H350.264V48.7273H354.48ZM379.631 55.125C379.525 54.1326 379.078 53.3598 378.29 52.8068C377.509 52.2538 376.494 51.9773 375.244 51.9773C374.366 51.9773 373.612 52.1098 372.983 52.375C372.354 52.6402 371.873 53 371.54 53.4545C371.206 53.9091 371.036 54.428 371.028 55.0114C371.028 55.4962 371.138 55.9167 371.358 56.2727C371.585 56.6288 371.892 56.9318 372.278 57.1818C372.665 57.4242 373.093 57.6288 373.562 57.7955C374.032 57.9621 374.506 58.1023 374.983 58.2159L377.165 58.7614C378.044 58.9659 378.888 59.2424 379.699 59.5909C380.517 59.9394 381.248 60.3788 381.892 60.9091C382.544 61.4394 383.059 62.0795 383.438 62.8295C383.816 63.5795 384.006 64.4583 384.006 65.4659C384.006 66.8295 383.657 68.0303 382.96 69.0682C382.263 70.0985 381.256 70.9053 379.938 71.4886C378.627 72.0644 377.04 72.3523 375.176 72.3523C373.366 72.3523 371.794 72.072 370.46 71.5114C369.134 70.9508 368.097 70.1326 367.347 69.0568C366.604 67.9811 366.203 66.6705 366.142 65.125H370.29C370.35 65.9356 370.6 66.6098 371.04 67.1477C371.479 67.6856 372.051 68.0871 372.756 68.3523C373.468 68.6174 374.263 68.75 375.142 68.75C376.059 68.75 376.862 68.6136 377.551 68.3409C378.248 68.0606 378.794 67.6742 379.188 67.1818C379.581 66.6818 379.782 66.0985 379.79 65.4318C379.782 64.8258 379.604 64.3258 379.256 63.9318C378.907 63.5303 378.419 63.197 377.79 62.9318C377.169 62.6591 376.441 62.4167 375.608 62.2045L372.96 61.5227C371.044 61.0303 369.528 60.2841 368.415 59.2841C367.309 58.2765 366.756 56.9394 366.756 55.2727C366.756 53.9015 367.127 52.7008 367.869 51.6705C368.619 50.6402 369.638 49.8409 370.926 49.2727C372.214 48.697 373.672 48.4091 375.301 48.4091C376.953 48.4091 378.4 48.697 379.642 49.2727C380.892 49.8409 381.873 50.6326 382.585 51.6477C383.297 52.6553 383.665 53.8144 383.688 55.125H379.631ZM395.702 72V48.7273H399.918V58.5795H410.702V48.7273H414.929V72H410.702V62.1136H399.918V72H395.702ZM427.452 72V48.7273H442.588V52.2614H431.668V58.5795H441.804V62.1136H431.668V68.4659H442.679V72H427.452ZM454.827 72V48.7273H463.554C465.342 48.7273 466.842 49.0379 468.054 49.6591C469.274 50.2803 470.194 51.1515 470.815 52.2727C471.444 53.3864 471.759 54.6856 471.759 56.1705C471.759 57.6629 471.44 58.9583 470.804 60.0568C470.175 61.1477 469.247 61.9924 468.02 62.5909C466.793 63.1818 465.285 63.4773 463.497 63.4773H457.281V59.9773H462.929C463.974 59.9773 464.83 59.8333 465.497 59.5455C466.164 59.25 466.656 58.822 466.974 58.2614C467.3 57.6932 467.463 56.9962 467.463 56.1705C467.463 55.3447 467.3 54.6402 466.974 54.0568C466.649 53.4659 466.152 53.0189 465.486 52.7159C464.819 52.4053 463.959 52.25 462.906 52.25H459.043V72H454.827ZM466.849 61.4545L472.611 72H467.906L462.247 61.4545H466.849ZM496.224 55.125C496.118 54.1326 495.671 53.3598 494.884 52.8068C494.103 52.2538 493.088 51.9773 491.838 51.9773C490.959 51.9773 490.205 52.1098 489.577 52.375C488.948 52.6402 488.467 53 488.134 53.4545C487.8 53.9091 487.63 54.428 487.622 55.0114C487.622 55.4962 487.732 55.9167 487.952 56.2727C488.179 56.6288 488.486 56.9318 488.872 57.1818C489.259 57.4242 489.687 57.6288 490.156 57.7955C490.626 57.9621 491.099 58.1023 491.577 58.2159L493.759 58.7614C494.637 58.9659 495.482 59.2424 496.293 59.5909C497.111 59.9394 497.842 60.3788 498.486 60.9091C499.137 61.4394 499.652 62.0795 500.031 62.8295C500.41 63.5795 500.599 64.4583 500.599 65.4659C500.599 66.8295 500.251 68.0303 499.554 69.0682C498.857 70.0985 497.849 70.9053 496.531 71.4886C495.221 72.0644 493.634 72.3523 491.77 72.3523C489.959 72.3523 488.387 72.072 487.054 71.5114C485.728 70.9508 484.69 70.1326 483.94 69.0568C483.198 67.9811 482.796 66.6705 482.736 65.125H486.884C486.944 65.9356 487.194 66.6098 487.634 67.1477C488.073 67.6856 488.645 68.0871 489.349 68.3523C490.062 68.6174 490.857 68.75 491.736 68.75C492.652 68.75 493.455 68.6136 494.145 68.3409C494.842 68.0606 495.387 67.6742 495.781 67.1818C496.175 66.6818 496.376 66.0985 496.384 65.4318C496.376 64.8258 496.198 64.3258 495.849 63.9318C495.501 63.5303 495.012 63.197 494.384 62.9318C493.762 62.6591 493.035 62.4167 492.202 62.2045L489.554 61.5227C487.637 61.0303 486.122 60.2841 485.009 59.2841C483.902 58.2765 483.349 56.9394 483.349 55.2727C483.349 53.9015 483.721 52.7008 484.463 51.6705C485.213 50.6402 486.232 49.8409 487.52 49.2727C488.808 48.697 490.266 48.4091 491.895 48.4091C493.546 48.4091 494.993 48.697 496.236 49.2727C497.486 49.8409 498.467 50.6326 499.179 51.6477C499.891 52.6553 500.259 53.8144 500.281 55.125H496.224Z" fill="black"/>
</svg>
